<?xml version="1.0" encoding="UTF-8"?><svg id="_层_2" xmlns="http://www.w3.org/2000/svg" xmlns:xlink="http://www.w3.org/1999/xlink" viewBox="0 0 143.28 45.57"><defs><style>.cls-1{fill:#6d65f5;}.cls-2{fill:url(#_命名的渐变_10);}</style><linearGradient id="_命名的渐变_10" x1="12.95" y1="44.17" x2="37.72" y2="1.25" gradientTransform="matrix(1, 0, 0, 1, 0, 0)" gradientUnits="userSpaceOnUse"><stop offset="0" stop-color="#6d65f5"/><stop offset=".03" stop-color="#6e68f5"/><stop offset=".07" stop-color="#7174f5"/><stop offset=".1" stop-color="#7688f6"/><stop offset=".13" stop-color="#7da3f7"/><stop offset=".14" stop-color="#7fabf8"/><stop offset=".31" stop-color="#83aaf8"/><stop offset=".49" stop-color="#8fa8f8"/><stop offset=".67" stop-color="#a4a4f8"/><stop offset=".85" stop-color="#c19ff8"/><stop offset="1" stop-color="#df9af8"/></linearGradient></defs><g id="OBJECTS"><g><path d="M77.05,11.71c0,4.97-3.52,8.27-8.47,8.27-5.39,0-9.23-4.01-9.23-8.94s3.89-8.99,9.04-8.99c3.27,0,6.06,1.65,7.51,4.01l-2.9,1.67c-.79-1.38-2.54-2.39-4.63-2.39-3.27,0-5.64,2.41-5.64,5.69s2.29,5.61,5.88,5.61c2.71,0,4.43-1.3,5.02-3.27h-5.22v-3h8.64v1.33Z"/><path d="M85.45,13.65h-2.58v5.98h-3.4V2.4h6.89c3.18,0,5.74,2.56,5.74,5.71,0,2.17-1.35,4.11-3.32,5.02l3.82,6.5h-3.67l-3.47-5.98Zm-2.58-2.98h3.5c1.28,0,2.34-1.13,2.34-2.56s-1.06-2.54-2.34-2.54h-3.5v5.1Z"/><path d="M105.24,16.38v3.25h-10.66V2.4h10.54v3.25h-7.14v3.67h6.52v3.2h-6.52v3.87h7.26Z"/><path d="M118.29,16.38v3.25h-10.66V2.4h10.54v3.25h-7.14v3.67h6.52v3.2h-6.52v3.87h7.26Z"/><path d="M134.05,2.4V19.63h-2.58l-7.39-10.54v10.54h-3.4V2.4h2.58l7.39,10.51V2.4h3.4Z"/><path class="cls-1" d="M71.59,41.18l-1.58-1.7c-1.23,.91-2.76,1.48-4.63,1.48-3.5,0-6.03-1.94-6.03-5.12,0-1.99,.98-3.84,2.88-4.95-.49-.79-.84-1.7-.84-2.88,0-2.93,2.29-4.97,5.39-4.97,2.41,0,4.51,1.26,5.49,3.69l-2.91,1.67c-.44-1.28-1.3-2.07-2.54-2.07s-2.04,.76-2.04,1.82,.62,1.75,1.4,2.61l3.69,4.04c.37-.81,.64-1.77,.84-2.86l2.86,1.62c-.3,1.23-.79,2.49-1.5,3.62l2.22,2.44-2.71,1.55Zm-3.69-3.96l-3.72-4.04s-.05-.05-.05-.07c-.98,.62-1.35,1.53-1.35,2.39,0,1.38,.94,2.34,2.83,2.34,.89,0,1.65-.22,2.29-.62Z"/><path d="M89.44,37.93v3.25h-9.97V23.95h3.4v13.98h6.57Z"/><path d="M89.51,32.22c0-5.05,3.96-8.96,8.94-8.96s8.96,3.91,8.96,8.96-3.99,8.96-8.96,8.96-8.94-3.94-8.94-8.96Zm14.5,0c0-3.32-2.44-5.66-5.56-5.66s-5.56,2.34-5.56,5.66,2.44,5.64,5.56,5.64,5.56-2.34,5.56-5.64Z"/><path d="M123.17,23.95v17.23h-2.58l-7.39-10.54v10.54h-3.4V23.95h2.58l7.39,10.51v-10.51h3.4Z"/><path d="M143.28,32.91c0,4.97-3.52,8.27-8.47,8.27-5.39,0-9.23-4.01-9.23-8.94s3.89-8.99,9.04-8.99c3.27,0,6.06,1.65,7.51,4.01l-2.9,1.67c-.79-1.38-2.54-2.39-4.63-2.39-3.27,0-5.64,2.41-5.64,5.69s2.29,5.61,5.88,5.61c2.71,0,4.43-1.3,5.02-3.27h-5.22v-3h8.64v1.33Z"/><path class="cls-2" d="M47.87,19.69c-.58-4.33-2.39-8.37-5.25-11.71,.31-.5,.49-1.09,.49-1.73,0-1.81-1.47-3.29-3.29-3.29-.78,0-1.5,.27-2.07,.73-3.67-2.41-7.97-3.7-12.46-3.7-2.98,0-5.88,.57-8.56,1.66-.6-.72-1.51-1.18-2.52-1.18-1.81,0-3.29,1.47-3.29,3.29,0,.41,.08,.8,.21,1.16-.68,.54-1.33,1.12-1.96,1.75-3.53,3.53-5.76,8.01-6.44,12.87-1.55,.26-2.74,1.61-2.74,3.24s1.18,2.98,2.74,3.24c.69,4.86,2.91,9.34,6.44,12.87,1.02,1.02,2.12,1.93,3.29,2.73-.01,.12-.02,.24-.02,.36,0,1.81,1.47,3.29,3.29,3.29,.87,0,1.66-.34,2.25-.89,2.32,.78,4.78,1.19,7.3,1.19,3.05,0,6.01-.6,8.74-1.73,.6,.71,1.5,1.15,2.5,1.15,1.81,0,3.29-1.47,3.29-3.29,0-.42-.08-.82-.22-1.19,.62-.51,1.23-1.05,1.8-1.62,3.57-3.57,5.8-8.11,6.47-13.02,1.26-.46,2.16-1.67,2.16-3.09s-.9-2.63-2.16-3.09ZM17.42,3.07c2.43-.98,5.09-1.51,7.87-1.51,4.24,0,8.19,1.25,11.51,3.4-.17,.4-.27,.84-.27,1.3v.05c-2.8,.9-5.34,2.22-7.61,3.95-1.01-.84-2.3-1.34-3.71-1.34-1.14,0-2.2,.33-3.1,.89-1.56-1.76-3.19-3.34-4.89-4.73,.17-.4,.27-.84,.27-1.3,0-.24-.03-.47-.08-.7Zm26.37,18.27c-.21,.44-.33,.93-.33,1.45,0,.12,0,.24,.02,.35-2.01,.69-4.71,1.73-7.78,3.21-.23,.11-.46,.23-.7,.34-.6-.62-1.44-1.01-2.37-1.01-.19,0-.38,.02-.56,.05-1.01-2.25-2.09-4.4-3.24-6.42,1.01-.81,1.75-1.94,2.06-3.24,4.31,.81,8.62,2.57,12.91,5.27Zm-15.68-3.27c-.19-.32-.39-.64-.58-.95,.41-.38,.72-.86,.9-1.41,.36,.04,.71,.08,1.07,.13-.23,.88-.72,1.65-1.38,2.23Zm-7.17-2.21c.41-.06,.82-.11,1.22-.16,.13,.42,.35,.8,.63,1.13-.12,.18-.25,.37-.37,.56-.1,.16-.21,.33-.31,.49-.56-.55-.97-1.25-1.18-2.03Zm1.66-3.04c-.26,.38-.45,.81-.54,1.28-.41,.04-.83,.1-1.24,.16,.1-.9,.47-1.71,1.02-2.37,.26,.31,.51,.62,.76,.93Zm1.42,4.91c.39,.17,.82,.26,1.28,.26,.3,0,.59-.04,.86-.12,.21,.33,.41,.67,.61,1-.48,.18-1.01,.28-1.56,.28-.66,0-1.28-.15-1.85-.41,.21-.35,.43-.69,.65-1.02Zm-.96-6.84c.64-.36,1.38-.57,2.16-.57,.96,0,1.86,.31,2.58,.84-.27,.23-.55,.47-.81,.72-.49-.3-1.07-.47-1.69-.47-.55,0-1.06,.13-1.51,.37-.24-.3-.48-.6-.73-.89Zm5.47,3.21c-.08-.42-.23-.81-.45-1.16,.26-.24,.52-.47,.79-.69,.4,.58,.66,1.25,.74,1.98-.36-.05-.72-.1-1.07-.13ZM12.03,6.22c.58,.52,1.35,.83,2.18,.83,.79,0,1.51-.28,2.08-.74,1.67,1.38,3.21,2.9,4.62,4.5-.9,.98-1.47,2.27-1.53,3.7-4.64,.9-9.29,2.84-13.91,5.83-.34-.3-.74-.53-1.18-.68,.8-5.41,3.65-10.16,7.73-13.43Zm3.39,32.49c-.99,.09-1.84,.63-2.38,1.4-4.62-3.28-7.88-8.35-8.75-14.2,1.32-.43,2.28-1.66,2.28-3.13,0-.41-.08-.81-.22-1.17,4.38-2.82,8.78-4.66,13.18-5.51,.29,1.2,.94,2.25,1.84,3.04-2.86,5.12-4.86,11.68-5.96,19.57Zm2.18,.56c-.2-.14-.42-.25-.65-.35,1.07-7.71,2.96-14.01,5.69-18.95,.77,.38,1.64,.59,2.56,.59,.81,0,1.58-.17,2.28-.46,1.23,2.16,2.28,4.28,3.16,6.24-.79,.6-1.3,1.55-1.3,2.62,0,.27,.03,.54,.1,.8-3.89,2.39-8.09,5.53-11.84,9.52Zm15.65,2.42c0,.25,.03,.49,.08,.73-2.48,1.02-5.2,1.58-8.04,1.58-2.24,0-4.4-.35-6.43-1,.11-.32,.17-.67,.17-1.03,0-.56-.14-1.08-.38-1.54,3.64-3.89,7.73-6.96,11.52-9.3,.6,.68,1.48,1.11,2.46,1.11,.12,0,.25,0,.37-.02,.93,2.6,1.59,4.87,2.04,6.55-1.06,.54-1.79,1.65-1.79,2.92Zm5.45-2.47c-.57-.5-1.33-.81-2.15-.81-.46-1.72-1.14-4.05-2.09-6.72,.88-.59,1.46-1.59,1.46-2.73,0-.32-.05-.64-.13-.93,.19-.09,.37-.18,.55-.27,3.01-1.45,5.69-2.48,7.67-3.16,.51,.76,1.32,1.29,2.26,1.43-.82,5.29-3.6,9.95-7.57,13.2Zm6.1-19.1c-4.57-2.91-9.18-4.8-13.77-5.66-.05-1.15-.44-2.22-1.07-3.1,2.08-1.55,4.4-2.74,6.96-3.56,.55,1.03,1.64,1.73,2.9,1.73,.61,0,1.18-.17,1.67-.46,2.47,2.92,4.17,6.5,4.78,10.45-.54,.08-1.05,.29-1.47,.6Z"/></g></g></svg>