<?xml version="1.0" encoding="UTF-8"?><svg id="_层_2" xmlns="http://www.w3.org/2000/svg" xmlns:xlink="http://www.w3.org/1999/xlink" viewBox="0 0 18.59 18.59"><defs><style>.cls-1{fill:url(#Degradado_sin_nombre_66);}</style><linearGradient id="Degradado_sin_nombre_66" x1="0" y1="9.3" x2="18.59" y2="9.3" gradientTransform="matrix(1, 0, 0, 1, 0, 0)" gradientUnits="userSpaceOnUse"><stop offset="0" stop-color="#7314d4"/><stop offset=".47" stop-color="#7314d4"/><stop offset="1" stop-color="#7314d4"/></linearGradient></defs><g id="OBJECTS"><path class="cls-1" d="M9.3,0C4.16,0,0,4.16,0,9.3s4.16,9.3,9.3,9.3,9.3-4.16,9.3-9.3S14.43,0,9.3,0Zm-.74,7.95l2.31,1.19c1.17,.6,1.79,1.84,1.58,3.16-.18,1.13-.95,2.01-2,2.33v.67c0,.49-.4,.89-.89,.89s-.89-.4-.89-.89v-.62c-1.13-.25-2.09-1.01-2.57-2.11-.2-.45,.01-.98,.46-1.18,.45-.2,.98,.01,1.18,.46,.33,.75,1.09,1.2,1.9,1.13,.04,0,.08,0,.12-.02,.75-.12,.9-.75,.93-.95,.07-.43-.06-.99-.64-1.28l-2.31-1.19c-1.18-.61-1.81-1.9-1.57-3.22,.24-1.28,1.21-2.2,2.49-2.38v-.65c0-.49,.4-.89,.89-.89s.89,.4,.89,.89v.86c.91,.34,1.66,1.03,2.07,1.96,.2,.45-.01,.98-.46,1.18-.45,.2-.98-.01-1.18-.46-.33-.75-1.09-1.21-1.9-1.13-.82,.09-1.01,.75-1.04,.95-.08,.43,.04,1,.63,1.3Z"/></g></svg>