<?xml version="1.0" encoding="UTF-8"?><svg id="_层_2" xmlns="http://www.w3.org/2000/svg" xmlns:xlink="http://www.w3.org/1999/xlink" viewBox="0 0 19.13 21.5"><defs><style>.cls-1{fill:url(#Degradado_sin_nombre_66);}</style><linearGradient id="Degradado_sin_nombre_66" x1="0" y1="10.75" x2="19.13" y2="10.75" gradientTransform="matrix(1, 0, 0, 1, 0, 0)" gradientUnits="userSpaceOnUse"><stop offset="0" stop-color="#7314d4"/><stop offset=".47" stop-color="#7314d4"/><stop offset="1" stop-color="#7314d4"/></linearGradient></defs><g id="OBJECTS"><path class="cls-1" d="M18.58,19.04H.55c-.3,0-.55,.24-.55,.55v1.64c0,.15,.12,.27,.27,.27H18.85c.15,0,.27-.12,.27-.27v-1.64c0-.3-.24-.55-.55-.55ZM2.46,16.86v.55c0,.15,.12,.27,.27,.27h2.73c.15,0,.27-.12,.27-.27v-.55c0-.15-.12-.27-.27-.27v-6.56c.15,0,.27-.12,.27-.27v-.55c0-.15-.12-.27-.27-.27H2.73c-.15,0-.27,.12-.27,.27v.55c0,.15,.12,.27,.27,.27v6.56c-.15,0-.27,.12-.27,.27Zm5.42,0v.55c0,.15,.12,.27,.27,.27h2.73c.15,0,.27-.12,.27-.27v-.55c0-.15-.12-.27-.27-.27v-6.56c.15,0,.27-.12,.27-.27v-.55c0-.15-.12-.27-.27-.27h-2.73c-.15,0-.27,.12-.27,.27v.55c0,.15,.12,.27,.27,.27v6.56c-.15,0-.27,.12-.27,.27ZM18.85,5.22L9.84,.07c-.17-.1-.37-.1-.54,0L.28,5.22c-.17,.1-.28,.28-.28,.47v1.6c0,.15,.12,.27,.27,.27H18.85c.15,0,.27-.12,.27-.27v-1.6c0-.2-.11-.38-.28-.47Zm-9.29,.84c-.87,0-1.57-.7-1.57-1.57s.7-1.57,1.57-1.57,1.57,.7,1.57,1.57-.7,1.57-1.57,1.57Zm3.83,10.79v.55c0,.15,.12,.27,.27,.27h2.73c.15,0,.27-.12,.27-.27v-.55c0-.15-.12-.27-.27-.27v-6.56c.15,0,.27-.12,.27-.27v-.55c0-.15-.12-.27-.27-.27h-2.73c-.15,0-.27,.12-.27,.27v.55c0,.13,.09,.23,.22,.26v6.58c-.12,.03-.22,.13-.22,.26Z"/></g></svg>