<?xml version="1.0" encoding="UTF-8"?><svg id="_层_2" xmlns="http://www.w3.org/2000/svg" xmlns:xlink="http://www.w3.org/1999/xlink" viewBox="0 0 14.45 14.37"><defs><style>.cls-1{fill:url(#Degradado_sin_nombre_66);}.cls-2{fill:url(#Degradado_sin_nombre_66-2);}</style><linearGradient id="Degradado_sin_nombre_66" x1="0" y1="7.18" x2="14.45" y2="7.18" gradientTransform="matrix(1, 0, 0, 1, 0, 0)" gradientUnits="userSpaceOnUse"><stop offset="0" stop-color="#7314d4"/><stop offset=".47" stop-color="#7314d4"/><stop offset="1" stop-color="#7314d4"/></linearGradient><linearGradient id="Degradado_sin_nombre_66-2" x1="6.6" y1="11.58" x2="7.85" y2="11.58" xlink:href="#Degradado_sin_nombre_66"/></defs><g id="OBJECTS"><g><path class="cls-1" d="M4.47,9.33c-.03-.09-.11-.14-.2-.14h-1.02c-1.8,0-3.25,1.46-3.25,3.25v1.44c0,.27,.22,.48,.48,.48H5.82c.14,0,.24-.14,.2-.27l-1.55-4.76Zm6.73-.14h-1.01c-.09,0-.17,.06-.2,.14l-1.55,4.76c-.04,.13,.06,.27,.2,.27h5.34c.27,0,.48-.22,.48-.48v-1.44c0-1.8-1.46-3.25-3.25-3.25Zm.02-5.2c0-2.2-1.79-3.99-3.99-3.99S3.24,1.79,3.24,3.99s1.79,3.99,3.99,3.99,3.99-1.79,3.99-3.99Z"/><path class="cls-2" d="M7.23,9.3c-.34,0-.62,.28-.62,.62v3.32c0,.34,.28,.62,.62,.62s.62-.28,.62-.62v-3.32c0-.34-.28-.62-.62-.62Z"/></g></g></svg>