<?xml version="1.0" encoding="UTF-8"?><svg id="_层_2" xmlns="http://www.w3.org/2000/svg" viewBox="0 0 122.38 122.38"><defs><style>.cls-1{fill:#7689fb;}.cls-1,.cls-2{opacity:.2;}.cls-2{fill:#6d65f8;}.cls-3{fill:none;stroke:#fff;stroke-miterlimit:10;}</style></defs><g id="OBJECTS"><path class="cls-2" d="M61.19,122.38C27.45,122.38,0,94.93,0,61.19S27.45,0,61.19,0s61.19,27.45,61.19,61.19-27.45,61.19-61.19,61.19Zm0-111.65c-27.83,0-50.46,22.64-50.46,50.46s22.64,50.46,50.46,50.46,50.46-22.64,50.46-50.46S89.02,10.73,61.19,10.73Z"/><polygon class="cls-1" points="61.19 12.58 23.18 30.88 13.79 72.01 40.1 104.99 82.28 104.99 108.59 72.01 99.2 30.88 61.19 12.58"/><g><g><circle class="cls-3" cx="61.19" cy="61.25" r="41.96"/><circle class="cls-3" cx="61.19" cy="61.25" r="34.95"/><circle class="cls-3" cx="61.19" cy="61.25" r="27.93" transform="translate(-.22 .22) rotate(-.21)"/><circle class="cls-3" cx="61.19" cy="61.25" r="20.91"/><circle class="cls-3" cx="61.19" cy="61.25" r="13.89" transform="translate(-2.07 120.36) rotate(-88.09)"/><path class="cls-3" d="M61.19,68.13c-3.79,0-6.88-3.08-6.88-6.88s3.09-6.88,6.88-6.88,6.88,3.08,6.88,6.88-3.09,6.88-6.88,6.88Z"/></g><line class="cls-3" x1="61.19" y1="17.16" x2="61.19" y2="61.32"/><line class="cls-3" x1="95.58" y1="32.4" x2="61.19" y2="61.25"/><line class="cls-3" x1="104.77" y1="71.2" x2="61.19" y2="61.25"/><line class="cls-3" x1="80.59" y1="101.53" x2="61.19" y2="61.25"/><line class="cls-3" x1="26.8" y1="32.4" x2="61.19" y2="61.25"/><line class="cls-3" x1="17.61" y1="71.2" x2="61.19" y2="61.25"/><line class="cls-3" x1="41.79" y1="101.53" x2="61.19" y2="61.25"/></g></g></svg>