<?xml version="1.0" encoding="UTF-8"?><svg id="_层_2" xmlns="http://www.w3.org/2000/svg" xmlns:xlink="http://www.w3.org/1999/xlink" viewBox="0 0 18.89 18.32"><defs><style>.cls-1{fill:url(#Degradado_sin_nombre_66);}.cls-2{fill:url(#Degradado_sin_nombre_66-2);}</style><linearGradient id="Degradado_sin_nombre_66" x1="0" y1="12.14" x2="18.89" y2="12.14" gradientTransform="matrix(1, 0, 0, 1, 0, 0)" gradientUnits="userSpaceOnUse"><stop offset="0" stop-color="#7314d4"/><stop offset=".47" stop-color="#7314d4"/><stop offset="1" stop-color="#7314d4"/></linearGradient><linearGradient id="Degradado_sin_nombre_66-2" x1="2.29" y1="2.95" x2="17.44" y2="2.95" xlink:href="#Degradado_sin_nombre_66"/></defs><g id="OBJECTS"><g><path class="cls-1" d="M10.87,10.54c0-.32-.26-.57-.57-.57h-2.29c-.32,0-.57,.26-.57,.57v4.58h3.43v-4.58Zm4.87-2.29c0-.32-.26-.57-.57-.57h-2.29c-.32,0-.57,.26-.57,.57v6.87h3.43v-6.87Zm-9.73-1.72c0-.32-.26-.57-.57-.57H3.15c-.32,0-.57,.26-.57,.57V15.11h3.43V6.53Zm12.02,10.07H.86c-.47,0-.86,.38-.86,.86s.38,.86,.86,.86H18.03c.47,0,.86-.38,.86-.86s-.38-.86-.86-.86Z"/><path class="cls-2" d="M17.06,2.75c-.06-.41-.57-.58-.86-.29l-.45,.45L13.14,.77c-.32-.26-.79-.26-1.1,.01l-3.49,2.99L3.66,.17c-.38-.28-.92-.2-1.2,.18-.28,.38-.2,.92,.18,1.2l5.44,4.01c.15,.11,.33,.17,.51,.17,.2,0,.4-.07,.56-.21l3.46-2.97,1.93,1.58-.54,.54c-.3,.3-.13,.8,.29,.86l2.57,.37c.34,.05,.62-.24,.57-.57l-.37-2.57Z"/></g></g></svg>