<?xml version="1.0" encoding="UTF-8"?><svg id="_层_2" xmlns="http://www.w3.org/2000/svg" xmlns:xlink="http://www.w3.org/1999/xlink" viewBox="0 0 14.58 14.56"><defs><style>.cls-1{fill:url(#Degradado_sin_nombre_66);fill-rule:evenodd;}</style><linearGradient id="Degradado_sin_nombre_66" x1="0" y1="7.28" x2="14.58" y2="7.28" gradientTransform="matrix(1, 0, 0, 1, 0, 0)" gradientUnits="userSpaceOnUse"><stop offset="0" stop-color="#7314d4"/><stop offset=".47" stop-color="#7314d4"/><stop offset="1" stop-color="#7314d4"/></linearGradient></defs><g id="OBJECTS"><path class="cls-1" d="M5.91,13.81c0,.43-.32,.75-.74,.75H.62c-.32,0-.62-.32-.62-.75v-4.54c0-.42,.3-.74,.62-.74H5.17c.42,0,.74,.32,.74,.74v4.54Zm7.93-5.28h-4.55c-.32,0-.74,.32-.74,.74v4.54c0,.43,.42,.75,.74,.75h4.55c.42,0,.74-.32,.74-.75v-4.54c0-.42-.32-.74-.74-.74h0ZM5.17,0H.62C.3,0,0,.42,0,.73V5.27c0,.42,.3,.74,.62,.74H5.17c.42,0,.74-.32,.74-.74V.73c0-.31-.32-.73-.74-.73h0ZM13.84,0h-4.55c-.32,0-.74,.42-.74,.73V5.27c0,.42,.42,.74,.74,.74h4.55c.42,0,.74-.32,.74-.74V.73c0-.31-.32-.73-.74-.73h0Z"/></g></svg>